<svg xmlns="http://www.w3.org/2000/svg" version="1.1" xmlns:xlink="http://www.w3.org/1999/xlink" xmlns:svgjs="http://svgjs.dev/svgjs" width="2000" height="1500" viewBox="0 0 2000 1500"><rect width="2000" height="1500" fill="#ffffff"></rect><g transform="matrix(0.75,0,0,0.75,249.090909090909,282.7536437246963)"><svg viewBox="0 0 396 247" data-background-color="#ffffff" preserveAspectRatio="xMidYMid meet" height="1247" width="2000" xmlns="http://www.w3.org/2000/svg" xmlns:xlink="http://www.w3.org/1999/xlink"><g id="tight-bounds" transform="matrix(1,0,0,1,0.2400000000000091,-0.09999999999999432)"><svg viewBox="0 0 395.52 247.2" height="247.2" width="395.52"><g><svg></svg></g><g><svg viewBox="0 0 395.52 247.2" height="247.2" width="395.52"><g transform="matrix(1,0,0,1,95.37308896742944,47.215199999999996)"><svg viewBox="0 0 204.7738220651411 152.7696" height="152.7696" width="204.7738220651411"><g><svg viewBox="0 0 244.43135999999998 182.35573628535948" height="152.7696" width="204.7738220651411"><g><svg viewBox="0 0 244.43135999999998 182.35573628535948" height="182.35573628535948" width="244.43135999999998"><g id="textblocktransform"><svg viewBox="0 0 244.43135999999998 182.35573628535948" height="182.35573628535948" width="244.43135999999998" id="textblock"><g><svg viewBox="0 0 244.43135999999998 125.81025882352941" height="125.81025882352941" width="244.43135999999998"><g transform="matrix(1,0,0,1,0,0)"><svg width="244.43135999999998" viewBox="3.8 -28 54.400000000000006 28" height="125.81025882352941" data-palette-color="#000000"><path d="M18-4Q18.2-3.2 18.2-2L18.2-2Q18.2-0.85 18 0L18 0 4 0Q3.8-0.85 3.8-2L3.8-2Q3.8-3.2 4-4L4-4Q3.8-4.85 3.8-6L3.8-6Q3.8-7.2 4-8L4-8Q3.8-8.85 3.8-10L3.8-10Q3.8-11.2 4-12L4-12Q3.8-12.85 3.8-14L3.8-14Q3.8-15.2 4-16L4-16Q3.8-16.85 3.8-18L3.8-18Q3.8-19.2 4-20L4-20Q3.8-20.85 3.8-22L3.8-22Q3.8-23.2 4-24L4-24Q3.8-24.85 3.8-26L3.8-26Q3.8-27.2 4-28L4-28 8-28Q8.2-27.2 8.2-26L8.2-26Q8.2-24.85 8-24L8-24Q8.2-23.2 8.2-22L8.2-22Q8.2-20.85 8-20L8-20Q8.2-19.2 8.2-18L8.2-18Q8.2-16.85 8-16L8-16Q8.2-15.2 8.2-14L8.2-14Q8.2-12.85 8-12L8-12Q8.2-11.2 8.2-10L8.2-10Q8.2-8.85 8-8L8-8Q8.2-7.2 8.2-6L8.2-6Q8.2-4.85 8-4L8-4 18-4ZM38-4Q38.2-3.2 38.2-2L38.2-2Q38.2-0.85 38 0L38 0 24 0Q23.8-0.85 23.8-2L23.8-2Q23.8-3.2 24-4L24-4Q23.8-4.85 23.8-6L23.8-6Q23.8-7.2 24-8L24-8Q23.8-8.85 23.8-10L23.8-10Q23.8-11.2 24-12L24-12Q23.8-12.85 23.8-14L23.8-14Q23.8-15.2 24-16L24-16Q23.8-16.85 23.8-18L23.8-18Q23.8-19.2 24-20L24-20Q23.8-20.85 23.8-22L23.8-22Q23.8-23.2 24-24L24-24Q23.8-24.85 23.8-26L23.8-26Q23.8-27.2 24-28L24-28 28-28Q28.2-27.2 28.2-26L28.2-26Q28.2-24.85 28-24L28-24Q28.2-23.2 28.2-22L28.2-22Q28.2-20.85 28-20L28-20Q28.2-19.2 28.2-18L28.2-18Q28.2-16.85 28-16L28-16Q28.2-15.2 28.2-14L28.2-14Q28.2-12.85 28-12L28-12Q28.2-11.2 28.2-10L28.2-10Q28.2-8.85 28-8L28-8Q28.2-7.2 28.2-6L28.2-6Q28.2-4.85 28-4L28-4 38-4ZM54-8L58-8Q58.2-7.2 58.2-6L58.2-6Q58.2-4.85 58-4L58-4 56-4Q56.2-3.2 56.2-2L56.2-2Q56.2-0.85 56 0L56 0 46 0Q45.8-0.85 45.8-2L45.8-2Q45.8-3.2 46-4L46-4 44-4Q43.8-4.85 43.8-6L43.8-6Q43.8-7.2 44-8L44-8 42-8Q41.8-8.85 41.8-10L41.8-10Q41.8-11.2 42-12L42-12Q41.8-12.85 41.8-14L41.8-14Q41.8-15.2 42-16L42-16Q41.8-16.85 41.8-18L41.8-18Q41.8-19.2 42-20L42-20 44-20Q43.8-20.85 43.8-22L43.8-22Q43.8-23.2 44-24L44-24 46-24Q45.8-24.85 45.8-26L45.8-26Q45.8-27.2 46-28L46-28 56-28Q56.2-27.2 56.2-26L56.2-26Q56.2-24.85 56-24L56-24 58-24Q58.2-23.2 58.2-22L58.2-22Q58.2-20.85 58-20L58-20 54-20Q53.8-20.85 53.8-22L53.8-22Q53.8-23.2 54-24L54-24 48-24Q48.2-23.2 48.2-22L48.2-22Q48.2-20.85 48-20L48-20 46-20Q46.2-19.2 46.2-18L46.2-18Q46.2-16.85 46-16L46-16Q46.2-15.2 46.2-14L46.2-14Q46.2-12.85 46-12L46-12Q46.2-11.2 46.2-10L46.2-10Q46.2-8.85 46-8L46-8 48-8Q48.2-7.2 48.2-6L48.2-6Q48.2-4.85 48-4L48-4 54-4Q53.8-4.85 53.8-6L53.8-6Q53.8-7.2 54-8L54-8Z" opacity="1" transform="matrix(1,0,0,1,0,0)" fill="#000000" class="wordmark-text-0" data-fill-palette-color="primary" id="text-0"></path></svg></g></svg></g><g transform="matrix(1,0,0,1,0,155.51104148555294)"><svg viewBox="0 0 164.86895231999995 26.844694799806543" height="26.844694799806543" width="164.86895231999995"><g transform="matrix(1,0,0,1,0,0)"><svg width="164.86895231999995" viewBox="2.6 -39.65 310.10999999999996 50.5" height="26.844694799806543" data-palette-color="#000000"><path d="M8.45 0.75Q5.75 0.75 4.17-0.93 2.6-2.6 2.6-5.4L2.6-5.4 2.6-37.05 8.75-37.7 8.75-5.65Q8.75-5 9.05-4.6 9.35-4.2 9.95-4.2L9.95-4.2Q10.3-4.2 10.63-4.3 10.95-4.4 11.05-4.4L11.05-4.4 12.25-0.2Q10.55 0.75 8.45 0.75L8.45 0.75ZM15.3-26.45L21.45-26.45 21.45 0 15.3 0 15.3-26.45ZM18.35-39.65Q20-39.65 21.02-38.6 22.05-37.55 22.05-35.9L22.05-35.9Q22.05-34.3 21.02-33.25 20-32.2 18.35-32.2L18.35-32.2Q16.7-32.2 15.67-33.25 14.65-34.3 14.65-35.9L14.65-35.9Q14.65-37.55 15.67-38.6 16.7-39.65 18.35-39.65L18.35-39.65ZM38.3-5L40.45-1.2Q38 0.75 34.7 0.75L34.7 0.75Q31.25 0.75 29.45-1.23 27.65-3.2 27.65-6.6L27.65-6.6 27.65-22 24.55-22 24.55-26.45 27.65-26.45 27.65-32.3 33.8-33.05 33.8-26.45 38.8-26.45 38.2-22 33.8-22 33.8-6.6Q33.8-4.2 35.84-4.2L35.84-4.2Q36.5-4.2 37-4.38 37.5-4.55 38.3-5L38.3-5ZM61.84-13.85Q61.84-13.4 61.69-11.3L61.69-11.3 48.04-11.3Q48.24-7.2 49.47-5.58 50.69-3.95 52.94-3.95L52.94-3.95Q54.49-3.95 55.74-4.48 56.99-5 58.44-6.15L58.44-6.15 60.99-2.65Q57.49 0.75 52.59 0.75L52.59 0.75Q47.39 0.75 44.62-2.85 41.84-6.45 41.84-13L41.84-13Q41.84-19.55 44.49-23.35 47.14-27.15 51.99-27.15L51.99-27.15Q56.64-27.15 59.24-23.78 61.84-20.4 61.84-13.85L61.84-13.85ZM55.84-15.3L55.84-15.65Q55.84-19.4 54.94-21.13 54.04-22.85 52.04-22.85L52.04-22.85Q50.19-22.85 49.22-21.18 48.24-19.5 48.04-15.3L48.04-15.3 55.84-15.3ZM71.74 0.75Q69.04 0.75 67.47-0.93 65.89-2.6 65.89-5.4L65.89-5.4 65.89-37.05 72.04-37.7 72.04-5.65Q72.04-5 72.34-4.6 72.64-4.2 73.24-4.2L73.24-4.2Q73.59-4.2 73.92-4.3 74.24-4.4 74.34-4.4L74.34-4.4 75.54-0.2Q73.84 0.75 71.74 0.75L71.74 0.75ZM95.49-6.4Q95.49-5.1 95.84-4.48 96.19-3.85 96.99-3.45L96.99-3.45 95.74 0.65Q93.69 0.4 92.46-0.45 91.24-1.3 90.64-3.05L90.64-3.05Q88.34 0.75 84.19 0.75L84.19 0.75Q80.89 0.75 78.94-1.48 76.99-3.7 76.99-7.4L76.99-7.4Q76.99-11.7 79.66-13.95 82.34-16.2 87.44-16.2L87.44-16.2 89.49-16.2 89.49-18.05Q89.49-20.55 88.61-21.58 87.74-22.6 85.79-22.6L85.79-22.6Q83.44-22.6 79.94-21.3L79.94-21.3 78.54-25.3Q80.54-26.2 82.69-26.68 84.84-27.15 86.79-27.15L86.79-27.15Q95.49-27.15 95.49-18.35L95.49-18.35 95.49-6.4ZM85.84-3.7Q88.24-3.7 89.49-7L89.49-7 89.49-12.55 88.04-12.55Q85.49-12.55 84.31-11.4 83.14-10.25 83.14-7.85L83.14-7.85Q83.14-5.8 83.84-4.75 84.54-3.7 85.84-3.7L85.84-3.7ZM113.64-27.15Q116.49-27.15 118.14-25.1 119.79-23.05 119.79-19.6L119.79-19.6 119.79 0 113.64 0 113.64-18.9Q113.64-20.8 113.11-21.63 112.59-22.45 111.59-22.45L111.59-22.45Q109.49-22.45 107.44-18.5L107.44-18.5 107.44 0 101.29 0 101.29-26.45 106.64-26.45 107.09-23Q108.44-25.1 109.96-26.13 111.49-27.15 113.64-27.15L113.64-27.15ZM143.28-29.85L144.83-25.1Q143.78-24.6 142.31-24.4 140.83-24.2 138.63-24.2L138.63-24.2Q140.73-23.2 141.76-21.53 142.78-19.85 142.78-17.4L142.78-17.4Q142.78-13.4 140.33-10.95 137.88-8.5 133.68-8.5L133.68-8.5Q132.43-8.5 131.13-8.9L131.13-8.9Q130.23-8.15 130.23-6.85L130.23-6.85Q130.23-5.85 130.78-5.35 131.33-4.85 132.83-4.85L132.83-4.85 135.63-4.85Q139.63-4.85 141.98-2.78 144.33-0.7 144.33 2.5L144.33 2.5Q144.33 6.3 141.41 8.58 138.48 10.85 133.08 10.85L133.08 10.85Q127.38 10.85 125.11 8.75 122.83 6.65 122.83 2.6L122.83 2.6 128.28 2.6Q128.28 4.75 129.28 5.65 130.28 6.55 133.13 6.55L133.13 6.55Q135.88 6.55 137.03 5.6 138.18 4.65 138.18 2.9L138.18 2.9Q138.18 1.2 137.23 0.4 136.28-0.4 134.28-0.4L134.28-0.4 132.38-0.4Q128.58-0.4 126.83-1.75 125.08-3.1 125.08-5.45L125.08-5.45Q125.08-6.8 125.81-8.03 126.53-9.25 127.78-10.2L127.78-10.2Q125.73-11.5 124.78-13.3 123.83-15.1 123.83-17.7L123.83-17.7Q123.83-22.05 126.43-24.58 129.03-27.1 133.43-27.1L133.43-27.1Q136.68-27.1 138.81-27.8 140.93-28.5 143.28-29.85L143.28-29.85ZM133.43-23Q131.68-23 130.78-21.75 129.88-20.5 129.88-17.8L129.88-17.8Q129.88-15.25 130.78-13.88 131.68-12.5 133.38-12.5L133.38-12.5Q135.13-12.5 135.98-13.73 136.83-14.95 136.83-17.85L136.83-17.85Q136.83-20.55 136.01-21.78 135.18-23 133.43-23L133.43-23ZM157.08-27.15Q159.23-27.15 160.98-26.43 162.73-25.7 164.33-24.15L164.33-24.15 161.68-20.65Q160.58-21.55 159.61-21.98 158.63-22.4 157.48-22.4L157.48-22.4Q155.23-22.4 154.08-20.28 152.93-18.15 152.93-13.1L152.93-13.1Q152.93-8.2 154.11-6.2 155.28-4.2 157.48-4.2L157.48-4.2Q158.58-4.2 159.48-4.6 160.38-5 161.58-5.85L161.58-5.85 164.33-2.3Q161.13 0.75 157.18 0.75L157.18 0.75Q152.08 0.75 149.26-2.73 146.43-6.2 146.43-13L146.43-13Q146.43-17.4 147.73-20.6 149.03-23.8 151.46-25.48 153.88-27.15 157.08-27.15L157.08-27.15ZM176.78-27.15Q181.78-27.15 184.55-23.65 187.33-20.15 187.33-13.25L187.33-13.25Q187.33-6.65 184.53-2.95 181.73 0.75 176.78 0.75L176.78 0.75Q171.83 0.75 169.03-2.88 166.23-6.5 166.23-13.25L166.23-13.25Q166.23-19.95 169.03-23.55 171.83-27.15 176.78-27.15L176.78-27.15ZM176.78-22.5Q174.63-22.5 173.63-20.38 172.63-18.25 172.63-13.25L172.63-13.25Q172.63-8.2 173.63-6.08 174.63-3.95 176.78-3.95L176.78-3.95Q178.93-3.95 179.93-6.08 180.93-8.2 180.93-13.25L180.93-13.25Q180.93-18.3 179.93-20.4 178.93-22.5 176.78-22.5L176.78-22.5ZM215.53-27.15Q218.18-27.15 219.78-25.1 221.38-23.05 221.38-19.6L221.38-19.6 221.38 0 215.33 0 215.33-18.95Q215.33-20.85 214.83-21.68 214.33-22.5 213.38-22.5L213.38-22.5Q211.43-22.5 209.63-18.8L209.63-18.8 209.63 0 203.63 0 203.63-18.95Q203.63-22.5 201.73-22.5L201.73-22.5Q199.68-22.5 197.93-18.8L197.93-18.8 197.93 0 191.88 0 191.88-26.45 197.23-26.45 197.63-23.05Q200.23-27.15 203.88-27.15L203.88-27.15Q205.73-27.15 207.08-26 208.43-24.85 209.13-22.75L209.13-22.75Q211.78-27.15 215.53-27.15L215.53-27.15ZM239.07-27.15Q242.97-27.15 244.97-23.58 246.97-20 246.97-13.3L246.97-13.3Q246.97-6.8 244.7-3.03 242.42 0.75 238.37 0.75L238.37 0.75Q235.17 0.75 233.02-2.1L233.02-2.1 233.02 10.15 226.87 10.85 226.87-26.45 232.32-26.45 232.57-23.25Q233.87-25.25 235.47-26.2 237.07-27.15 239.07-27.15L239.07-27.15ZM236.72-3.95Q238.62-3.95 239.62-6.13 240.62-8.3 240.62-13.25L240.62-13.25Q240.62-18.45 239.77-20.5 238.92-22.55 237.12-22.55L237.12-22.55Q234.82-22.55 233.02-19.25L233.02-19.25 233.02-6.45Q234.62-3.95 236.72-3.95L236.72-3.95ZM251.57-26.45L257.72-26.45 257.72 0 251.57 0 251.57-26.45ZM254.62-39.65Q256.27-39.65 257.3-38.6 258.32-37.55 258.32-35.9L258.32-35.9Q258.32-34.3 257.3-33.25 256.27-32.2 254.62-32.2L254.62-32.2Q252.97-32.2 251.95-33.25 250.92-34.3 250.92-35.9L250.92-35.9Q250.92-37.55 251.95-38.6 252.97-39.65 254.62-39.65L254.62-39.65ZM269.02 0.75Q266.32 0.75 264.74-0.93 263.17-2.6 263.17-5.4L263.17-5.4 263.17-37.05 269.32-37.7 269.32-5.65Q269.32-5 269.62-4.6 269.92-4.2 270.52-4.2L270.52-4.2Q270.87-4.2 271.19-4.3 271.52-4.4 271.62-4.4L271.62-4.4 272.82-0.2Q271.12 0.75 269.02 0.75L269.02 0.75ZM294.72-13.85Q294.72-13.4 294.57-11.3L294.57-11.3 280.92-11.3Q281.12-7.2 282.34-5.58 283.57-3.95 285.82-3.95L285.82-3.95Q287.37-3.95 288.62-4.48 289.87-5 291.32-6.15L291.32-6.15 293.87-2.65Q290.37 0.75 285.47 0.75L285.47 0.75Q280.27 0.75 277.49-2.85 274.72-6.45 274.72-13L274.72-13Q274.72-19.55 277.37-23.35 280.02-27.15 284.87-27.15L284.87-27.15Q289.52-27.15 292.12-23.78 294.72-20.4 294.72-13.85L294.72-13.85ZM288.72-15.3L288.72-15.65Q288.72-19.4 287.82-21.13 286.92-22.85 284.92-22.85L284.92-22.85Q283.07-22.85 282.09-21.18 281.12-19.5 280.92-15.3L280.92-15.3 288.72-15.3ZM310.66-27.1Q311.81-27.1 312.71-26.75L312.71-26.75 311.71-20.85Q310.71-21.1 309.86-21.1L309.86-21.1Q307.96-21.1 306.86-19.45 305.76-17.8 305.16-14.55L305.16-14.55 305.16 0 299.01 0 299.01-26.45 304.36-26.45 304.81-21.85Q306.66-27.1 310.66-27.1L310.66-27.1Z" opacity="1" transform="matrix(1,0,0,1,0,0)" fill="#000000" class="slogan-text-1" data-fill-palette-color="secondary" id="text-1"></path></svg></g></svg></g></svg></g></svg></g></svg></g></svg></g><path d="M273.402 41.215L273.402 0 26.202 0 26.202 247.2 273.402 247.2 273.402 205.985 263.897 205.985 263.897 237.695 35.707 237.695 35.707 9.505 263.897 9.505 263.897 41.215Z" fill="#000000" stroke="transparent" data-fill-palette-color="tertiary"></path></svg></g><defs></defs></svg><rect width="395.52" height="247.2" fill="none" stroke="none" visibility="hidden"></rect></g></svg></g></svg>